<svg width="1440" height="897" viewBox="0 0 1440 897" fill="none" xmlns="http://www.w3.org/2000/svg">
<path d="M0 39.8079C159.973 149.207 276.494 155.57 352.596 141.899C433.47 127.372 453.759 92.2723 544.138 85.8365C683.334 75.9316 707.348 154.054 829.225 152.799C966.621 151.385 996.931 51.4625 1161.83 12.643C1274.83 -13.9558 1376.8 6.77943 1440 25.8079V896.808H0.000125271L0 39.8079Z" fill="url(#paint0_linear_0_687)" fill-opacity="0.4"/>
<path d="M1439.5 26.1796V896.308H0.500125L0.5 40.755C160.169 149.708 276.566 156.065 352.685 142.391C388.525 135.953 412.498 125.477 435.879 115.259C438.921 113.929 441.953 112.604 445 111.293C471.45 99.9099 499.06 89.5477 544.174 86.3352C613.65 81.3914 654.362 98.4077 692.964 116.527C695.391 117.666 697.811 118.81 700.229 119.954C736.288 137.003 772.001 153.888 829.23 153.299C898.079 152.59 940.107 127.187 985.489 97.1651C988.197 95.3734 990.918 93.5652 993.657 91.7448C1036.79 63.0717 1084.51 31.3592 1161.94 13.1297C1274.61 -13.391 1376.32 7.19311 1439.5 26.1796Z" stroke="url(#paint1_linear_0_687)" stroke-opacity="0.6" style="mix-blend-mode:overlay"/>
<defs>
<linearGradient id="paint0_linear_0_687" x1="706.386" y1="107.308" x2="706.386" y2="607.808" gradientUnits="userSpaceOnUse">
<stop stop-color="#0BD88F"/>
<stop offset="1" stop-color="#2B4AFB" stop-opacity="0"/>
</linearGradient>
<linearGradient id="paint1_linear_0_687" x1="719" y1="-0.192139" x2="719" y2="475.482" gradientUnits="userSpaceOnUse">
<stop stop-color="white"/>
<stop offset="1" stop-color="white" stop-opacity="0"/>
</linearGradient>
</defs>
</svg>
