<svg width="1440" height="919" viewBox="0 0 1440 919" fill="none" xmlns="http://www.w3.org/2000/svg">
<path d="M3.83854e-05 59.6964C164.868 169.262 282.069 195.692 360.5 182C468.5 163.146 477 72.4999 589.5 72.4999C667.5 72.4999 728.991 175.118 854.598 173.86C996.198 172.445 1023.06 45.9558 1193 7.07735C1309.46 -19.5619 1440 45.6752 1440 45.6752V919H0L3.83854e-05 59.6964Z" fill="url(#paint0_linear_0_164)" fill-opacity="0.3"/>
<path d="M1439.5 45.986V918.5H0.5L0.500038 60.6287C165.003 169.79 282.093 196.195 360.586 182.492C411.071 173.679 439.888 149.207 467.604 125.67C469.618 123.96 471.625 122.255 473.635 120.562C503.292 95.5691 533.428 72.9999 589.5 72.9999C608.888 72.9999 627.275 79.3762 645.936 88.9591C660.033 96.1981 674.255 105.249 689.172 114.742C694.012 117.822 698.925 120.949 703.932 124.076C744.774 149.585 791.651 174.991 854.603 174.36C925.587 173.651 967.819 141.572 1013.48 104.907C1015.08 103.63 1016.67 102.346 1018.27 101.058C1062.61 65.3968 1111.22 26.2992 1193.11 7.56475C1251.22 -5.72827 1312.88 3.89875 1360.04 16.8687C1383.61 23.3521 1403.55 30.6674 1417.6 36.3615C1424.62 39.2085 1430.16 41.6499 1433.96 43.379C1435.85 44.2436 1437.31 44.93 1438.29 45.4001C1438.78 45.6351 1439.15 45.816 1439.4 45.938L1439.5 45.986Z" stroke="url(#paint1_linear_0_164)" stroke-opacity="0.6" style="mix-blend-mode:overlay"/>
<defs>
<linearGradient id="paint0_linear_0_164" x1="741" y1="20.6371" x2="741" y2="806.329" gradientUnits="userSpaceOnUse">
<stop stop-color="#0BD88F"/>
<stop offset="1" stop-color="#4BDFFF" stop-opacity="0"/>
</linearGradient>
<linearGradient id="paint1_linear_0_164" x1="741" y1="20.6371" x2="741" y2="497.034" gradientUnits="userSpaceOnUse">
<stop stop-color="white"/>
<stop offset="1" stop-color="white" stop-opacity="0"/>
</linearGradient>
</defs>
</svg>
