<svg width="1440" height="611" viewBox="0 0 1440 611" fill="none" xmlns="http://www.w3.org/2000/svg">
<path d="M0 103.808C106.412 49.9249 264.341 -9.09161 451.767 2.21273C598.775 11.0803 674.487 57.7739 805.884 90.2511C948.761 125.57 1158.25 144.599 1440 61.8079V610.808H0V103.808Z" fill="url(#paint0_linear_0_688)" fill-opacity="0.3"/>
<path d="M0.5 610.308V104.115C106.866 50.2915 264.593 -8.57548 451.737 2.71183C525.188 7.14238 580.826 21.0215 634.53 37.8554C650.911 42.99 667.117 48.4016 683.597 53.9045C721.137 66.4396 760.096 79.4487 805.764 90.7365C948.611 126.048 1157.98 145.076 1439.5 62.4758V610.308H0.5Z" stroke="url(#paint1_linear_0_688)" stroke-opacity="0.6" style="mix-blend-mode:overlay"/>
<defs>
<linearGradient id="paint0_linear_0_688" x1="720" y1="0.807861" x2="720" y2="610.808" gradientUnits="userSpaceOnUse">
<stop stop-color="#0BD88F"/>
<stop offset="1" stop-color="#4BDFFF" stop-opacity="0"/>
</linearGradient>
<linearGradient id="paint1_linear_0_688" x1="720" y1="0.807861" x2="720" y2="493.194" gradientUnits="userSpaceOnUse">
<stop stop-color="white"/>
<stop offset="1" stop-color="white" stop-opacity="0"/>
</linearGradient>
</defs>
</svg>
