<svg width="18" height="18" viewBox="0 0 18 18" fill="none" xmlns="http://www.w3.org/2000/svg">
<path d="M7.74 10.62L5.7825 8.6625C5.6175 8.4975 5.415 8.415 5.175 8.415C4.935 8.415 4.725 8.505 4.545 8.685C4.38 8.85 4.2975 9.06 4.2975 9.315C4.2975 9.57 4.38 9.78 4.545 9.945L7.11 12.51C7.275 12.675 7.485 12.7575 7.74 12.7575C7.995 12.7575 8.205 12.675 8.37 12.51L13.4775 7.4025C13.6425 7.2375 13.725 7.035 13.725 6.795C13.725 6.555 13.635 6.345 13.455 6.165C13.29 6 13.08 5.9175 12.825 5.9175C12.57 5.9175 12.36 6 12.195 6.165L7.74 10.62ZM9 18C7.755 18 6.585 17.7636 5.49 17.2908C4.395 16.8186 3.4425 16.1775 2.6325 15.3675C1.8225 14.5575 1.1814 13.605 0.7092 12.51C0.2364 11.415 0 10.245 0 9C0 7.755 0.2364 6.585 0.7092 5.49C1.1814 4.395 1.8225 3.4425 2.6325 2.6325C3.4425 1.8225 4.395 1.1811 5.49 0.7083C6.585 0.2361 7.755 0 9 0C10.245 0 11.415 0.2361 12.51 0.7083C13.605 1.1811 14.5575 1.8225 15.3675 2.6325C16.1775 3.4425 16.8186 4.395 17.2908 5.49C17.7636 6.585 18 7.755 18 9C18 10.245 17.7636 11.415 17.2908 12.51C16.8186 13.605 16.1775 14.5575 15.3675 15.3675C14.5575 16.1775 13.605 16.8186 12.51 17.2908C11.415 17.7636 10.245 18 9 18Z" fill="#0BD88F"/>
</svg>
