<svg width="18" height="18" viewBox="0 0 18 18" fill="none" xmlns="http://www.w3.org/2000/svg">
<path d="M5.13 12.87C5.295 13.035 5.505 13.1175 5.76 13.1175C6.015 13.1175 6.225 13.035 6.39 12.87L9 10.26L11.6325 12.8925C11.7975 13.0575 12.0039 13.1361 12.2517 13.1283C12.4989 13.1211 12.705 13.035 12.87 12.87C13.035 12.705 13.1175 12.495 13.1175 12.24C13.1175 11.985 13.035 11.775 12.87 11.61L10.26 9L12.8925 6.3675C13.0575 6.2025 13.1361 5.9961 13.1283 5.7483C13.1211 5.5011 13.035 5.295 12.87 5.13C12.705 4.965 12.495 4.8825 12.24 4.8825C11.985 4.8825 11.775 4.965 11.61 5.13L9 7.74L6.3675 5.1075C6.2025 4.9425 5.9964 4.8636 5.7492 4.8708C5.5014 4.8786 5.295 4.965 5.13 5.13C4.965 5.295 4.8825 5.505 4.8825 5.76C4.8825 6.015 4.965 6.225 5.13 6.39L7.74 9L5.1075 11.6325C4.9425 11.7975 4.8639 12.0036 4.8717 12.2508C4.8789 12.4986 4.965 12.705 5.13 12.87ZM9 18C7.755 18 6.585 17.7636 5.49 17.2908C4.395 16.8186 3.4425 16.1775 2.6325 15.3675C1.8225 14.5575 1.1814 13.605 0.7092 12.51C0.2364 11.415 0 10.245 0 9C0 7.755 0.2364 6.585 0.7092 5.49C1.1814 4.395 1.8225 3.4425 2.6325 2.6325C3.4425 1.8225 4.395 1.1811 5.49 0.7083C6.585 0.2361 7.755 0 9 0C10.245 0 11.415 0.2361 12.51 0.7083C13.605 1.1811 14.5575 1.8225 15.3675 2.6325C16.1775 3.4425 16.8186 4.395 17.2908 5.49C17.7636 6.585 18 7.755 18 9C18 10.245 17.7636 11.415 17.2908 12.51C16.8186 13.605 16.1775 14.5575 15.3675 15.3675C14.5575 16.1775 13.605 16.8186 12.51 17.2908C11.415 17.7636 10.245 18 9 18Z" fill="#0BD88F"/>
</svg>
