<svg width="32" height="32" viewBox="0 0 32 32" fill="none" xmlns="http://www.w3.org/2000/svg">
<path d="M20.5066 23.9599C17.0853 26.4185 13.0213 25.4772 10.6946 24.5772C9.70929 26.7106 9.37732 28.1733 9.37065 28.2066C9.27065 28.6773 8.85461 28.9986 8.39327 28.9986C8.32527 28.9986 8.25598 28.9919 8.18665 28.9772C7.64665 28.8639 7.30126 28.3346 7.4146 27.7946C7.48526 27.4559 9.14267 19.9066 16.6893 13.4533C13.752 14.812 9.73597 17.8906 7.70797 22.5999C5.9613 19.1066 5.9346 12.6399 11.5879 9.58659C13.9746 8.30659 16.388 8.05322 19.308 7.05322C21.4147 6.31989 22.6546 4.85329 23.1613 4.11995C23.2813 3.93329 23.548 3.97326 23.6146 4.17326C24.5466 6.69326 28.2933 18.3599 20.5066 23.9599Z" fill="url(#paint0_linear_0_691)"/>
<defs>
<linearGradient id="paint0_linear_0_691" x1="6.67505" y1="23.8932" x2="14.0406" y2="23.8932" gradientUnits="userSpaceOnUse">
<stop stop-color="#0CD890"/>
<stop offset="1" stop-color="#01F0FD"/>
</linearGradient>
</defs>
</svg>
